<?xml version="1.0" encoding="utf-8"?>
<!-- Generator: Adobe Illustrator 16.0.0, SVG Export Plug-In . SVG Version: 6.00 Build 0)  -->
<!DOCTYPE svg PUBLIC "-//W3C//DTD SVG 1.1//EN" "http://www.w3.org/Graphics/SVG/1.1/DTD/svg11.dtd">
<svg version="1.1" id="Layer_1" xmlns="http://www.w3.org/2000/svg" xmlns:xlink="http://www.w3.org/1999/xlink" x="0px" y="0px"
	 width="40px" height="40px" viewBox="0 0 40 40" enable-background="new 0 0 40 40" xml:space="preserve">
<path fill="#FFFFFF" d="M19.309,38.374c-10.016,0-18.166-8.148-18.166-18.162c0-10.017,8.15-18.166,18.166-18.166
	c10.018,0,18.163,8.149,18.163,18.166C37.472,30.226,29.326,38.374,19.309,38.374 M19.309,3.804C10.261,3.804,2.9,11.163,2.9,20.212
	c0,9.046,7.36,16.406,16.408,16.406c9.05,0,16.409-7.36,16.409-16.406C35.718,11.163,28.358,3.804,19.309,3.804"/>
<path fill="#FFFFFF" d="M29.11,15.194h-5.709v-1.415h5.709V15.194z M20.384,21.008c0.369,0.574,0.554,1.27,0.554,2.08
	c0,0.842-0.208,1.593-0.633,2.26c-0.268,0.442-0.6,0.816-1.003,1.117c-0.45,0.344-0.986,0.582-1.598,0.713
	c-0.616,0.126-1.281,0.188-2.002,0.188H9.317V13.19h6.845c1.729,0.027,2.949,0.528,3.672,1.512c0.436,0.602,0.65,1.321,0.65,2.163
	c0,0.867-0.22,1.56-0.657,2.088c-0.246,0.296-0.604,0.563-1.077,0.806C19.469,20.024,20.018,20.438,20.384,21.008 M12.589,18.778
	h2.998c0.615,0,1.113-0.113,1.497-0.351c0.386-0.229,0.577-0.647,0.577-1.246c0-0.658-0.253-1.095-0.761-1.307
	c-0.438-0.147-0.999-0.223-1.674-0.223h-2.638V18.778z M17.946,22.887c0-0.739-0.301-1.247-0.899-1.52
	c-0.336-0.157-0.809-0.235-1.418-0.242h-3.04v3.778h2.991c0.615,0,1.093-0.082,1.439-0.248
	C17.639,24.347,17.946,23.761,17.946,22.887 M31.227,20.579c0.071,0.464,0.104,1.137,0.089,2.016h-7.394
	c0.04,1.022,0.392,1.734,1.062,2.142c0.402,0.256,0.889,0.382,1.463,0.382c0.604,0,1.097-0.152,1.477-0.469
	c0.205-0.161,0.385-0.398,0.541-0.691h2.713c-0.072,0.601-0.397,1.213-0.984,1.832c-0.907,0.988-2.181,1.484-3.819,1.484
	c-1.352,0-2.545-0.418-3.573-1.252c-1.036-0.832-1.553-2.187-1.553-4.063c0-1.763,0.466-3.112,1.398-4.05
	c0.938-0.94,2.143-1.408,3.632-1.408c0.885,0,1.678,0.16,2.389,0.474c0.708,0.32,1.295,0.818,1.752,1.507
	C30.834,19.082,31.104,19.782,31.227,20.579 M28.56,20.847c-0.048-0.708-0.285-1.242-0.71-1.604
	c-0.419-0.37-0.945-0.552-1.572-0.552c-0.682,0-1.211,0.194-1.585,0.581c-0.376,0.384-0.611,0.907-0.708,1.575H28.56z"/>
</svg>
