<?xml version="1.0" encoding="utf-8"?>
<!-- Generator: Adobe Illustrator 16.0.0, SVG Export Plug-In . SVG Version: 6.00 Build 0)  -->
<!DOCTYPE svg PUBLIC "-//W3C//DTD SVG 1.1//EN" "http://www.w3.org/Graphics/SVG/1.1/DTD/svg11.dtd">
<svg version="1.1" id="Layer_1" xmlns="http://www.w3.org/2000/svg" xmlns:xlink="http://www.w3.org/1999/xlink" x="0px" y="0px"
	 width="572.887px" height="141.859px" viewBox="0 0 572.887 141.859" enable-background="new 0 0 572.887 141.859"
	 xml:space="preserve">
<g>
	<path fill="#FFFFFF" d="M48.463,64.536c0,35.755,0.385,37.787,9.092,37.787c1.281,0,3.715,0,3.715,2.328
		c0,1.89-2.178,1.89-3.33,1.89H3.329c-1.151,0-3.329,0-3.329-1.89c0-2.328,2.433-2.328,3.715-2.328
		c8.706,0,9.092-2.032,9.092-37.787V44.623c0-35.755-0.386-37.791-9.092-37.791C2.433,6.832,0,6.832,0,4.509
		c0-1.891,2.178-1.891,3.329-1.891h56.403c17.924,0,45.451,0,45.451,29.649c0,31.832-33.671,29.068-47.118,29.505
		c-4.096,0.146-5.503,0-9.603,0V64.536z M48.463,57.558h10.373c6.654,0,10.113-4.069,10.113-18.168v-20.35
		c0-7.555-1.666-12.208-11.265-12.208c-7.685,0-9.222,2.327-9.222,20.495V57.558z"/>
	<path fill="#FFFFFF" d="M148.072,81.976c0,20.928,2.689,20.928,6.915,20.928c1.151,0,3.97,0,3.97,1.892
		c0,1.745-2.178,1.745-3.073,1.745h-46.859c-0.896,0-2.433,0-2.433-1.745c0-1.892,2.173-1.892,3.329-1.892
		c4.222,0,6.91,0,6.91-20.928v-53.05c0-13.372-1.918-16.572-7.17-17.153c-1.021-0.143-3.325,0-3.325-1.743
		c0-2.326,3.84-1.89,5.118-1.89c8.065-0.146,26.891-3.777,33.805-7.559C145.64,0.291,146.536,0,147.051,0
		c1.793,0,1.663,3.489,1.663,4.945l-0.642,35.172V81.976z"/>
	<path fill="#FFFFFF" d="M202.743,56.25c0-13.518-3.712-14.391-7.426-14.391c-1.922,0-6.659,0.873-6.659,3.055
		c0,2.326,3.841,3.341,3.841,8.432c0,7.99-11.136,10.172-16.513,10.172c-5.508,0-12.292-2.472-12.292-10.172
		c0-14.682,27.527-15.119,36.234-15.119c29.575,0,34.056,9.012,34.056,22.091v15.7c0,9.009,0,19.913,4.611,19.913
		c4.606,0,5.377-5.817,7.17-5.817c0.637,0,0.896,0.872,0.896,1.6c0,2.473-2.688,6.541-3.844,8.141
		c-4.736,6.396-12.032,8.864-19.332,8.864c-8.065,0-17.798-3.05-19.717-12.646h-0.255c-3.459,9.74-13.703,12.646-21.895,12.646
		c-10.244,0-23.943-4.65-23.943-18.604c0-11.628,8.322-16.278,17.154-19.183c8.07-2.473,17.929-3.49,27.913-3.49V56.25z
		 M202.743,71.077c-10.114-0.146-13.829,1.305-13.829,14.387c0,5.087,1.155,12.209,6.788,12.209c7.041,0,7.041-8.719,7.041-14.387
		V71.077z"/>
	<path fill="#FFFFFF" d="M260.742,85.172l-8.322-20.637c-2.943-6.832-6.018-18.168-13.313-20.495
		c-1.025-0.291-2.948,0.146-2.948-1.745c0-1.887,2.308-1.887,3.715-1.887h44.941c1.025,0,2.562,0,2.562,1.596
		c0,2.618-6.147,1.6-6.147,7.268c0,6.686,10.758,29.213,13.188,36.481c2.688-8.572,5.122-17.005,5.122-26.159
		c0-16.283-9.729-14.538-9.729-17.591c0-1.596,1.407-1.596,2.303-1.596h30.346c0.896,0,3.074,0,3.074,1.596
		c0,1.308-1.281,1.745-2.052,2.036c-14.21,4.65-22.15,30.668-27.272,44.768c1.537,3.487,2.693,5.524,6.148,6.25
		c2.048,0.437,2.304,3.633-0.386,3.633c-6.399,0.436-3.71,0.292-8.577,1.163c-5.377,15.986-14.084,42.005-32.397,42.005
		c-7.426,0-15.235-5.378-15.235-14.827c0-9.591,6.658-15.405,14.725-15.405c12.551,0,11.525,12.791,15.881,12.791
		c5.117,0,11.65-19.041,13.568-23.981c-2.559,0.727-10.754,3.05-13.188,4.505c-1.021,0.728-4.607,2.759-5.889,2.759
		c-1.922,0-2.562-2.468-3.204-4.214L260.742,85.172z"/>
	<path fill="#FFFFFF" d="M337.821,44.041h-5.633c-2.049,0-4.611,0-4.611-1.89c0-2.178,2.562-2.033,3.841-2.033
		c6.018,0,6.403-3.781,6.403-10.031v-9.301C337.821,4.945,357.668,0,368.293,0c9.987,0,22.79,3.199,22.79,16.863
		c0,9.445-6.654,14.386-14.21,14.386c-6.914,0-13.958-4.505-13.958-13.082c0-10.318,8.962-11.045,8.962-13.078
		c0-1.019-1.277-1.454-2.173-1.454c-8.707,0-15.236,7.994-15.236,17.44c0,11.19,8.833,19.332,18.306,19.332h5.378
		c1.795,0,3.97,0,3.97,1.887c0,2.327-1.918,1.745-4.862,1.745h-8.196v37.936c0,20.928,2.689,20.928,6.915,20.928
		c1.151,0,3.329,0,3.329,1.892c0,1.745-1.537,1.745-2.434,1.745h-46.862c-0.896,0-2.434,0-2.434-1.745
		c0-1.892,2.178-1.892,3.329-1.892c4.226,0,6.915,0,6.915-20.928V44.041z"/>
	<path fill="#FFFFFF" d="M439.865,92.441c-8.581,5.522-23.432,16.277-33.035,16.277c-7.425,0-11.01-6.828-11.01-15.405V66.422
		c0-14.823-2.944-17.005-7.3-18.022c-0.896-0.145-3.585-0.291-3.585-1.886c0-1.747,1.537-1.747,2.688-1.747
		c9.478,0,27.528-2.035,36.104-6.103c0.641-0.146,1.411-0.437,2.049-0.437c1.536,0,1.792,2.327,1.792,3.486l-0.511,9.159v37.936
		c0,2.178,1.151,4.65,3.459,4.65c3.199,0,6.91-3.055,9.348-5.086V64.682c0-12.792-1.156-15.119-5.127-16.136
		c-0.896-0.146-1.789-0.728-1.789-1.741c0-2.037,3.071-1.6,4.353-1.6c6.784-0.291,24.583-3.345,30.602-6.25
		c0.641-0.437,1.663-0.728,2.178-0.728c1.407,0,1.533,1.891,1.533,3.195l-0.512,9.45v31.104c0,20.928,2.688,20.928,6.914,20.928
		c1.152,0,3.33,0,3.33,1.892c0,1.745-1.537,1.745-2.434,1.745h-37c-1.667,0-2.048-0.728-2.048-2.473V92.441z"/>
	<path fill="#FFFFFF" d="M525.902,81.976c0,20.928,2.688,20.928,6.914,20.928c1.151,0,3.967,0,3.967,1.892
		c0,1.745-2.174,1.745-3.074,1.745H486.85c-0.896,0-2.434,0-2.434-1.745c0-1.892,2.178-1.892,3.33-1.892
		c4.226,0,6.914,0,6.914-20.928v-53.05c0-13.372-1.922-16.572-7.17-17.153c-1.025-0.143-3.329,0-3.329-1.743
		c0-2.326,3.841-1.89,5.122-1.89c8.065-0.146,26.887-3.777,33.801-7.559C523.469,0.291,524.365,0,524.877,0
		c1.792,0,1.662,3.489,1.662,4.945l-0.637,35.172V81.976z"/>
	<path fill="#FFFFFF" d="M557.525,109.154c-7.17,0-14.98-5.086-14.98-14.096c0-9.595,7.937-15.263,15.747-15.263
		c6.915,0,14.595,5.668,14.595,14.1C572.887,103.196,565.207,109.154,557.525,109.154z"/>
</g>
</svg>
