<?xml version="1.0" encoding="utf-8"?>
<!-- Generator: Adobe Illustrator 16.0.0, SVG Export Plug-In . SVG Version: 6.00 Build 0)  -->
<!DOCTYPE svg PUBLIC "-//W3C//DTD SVG 1.1//EN" "http://www.w3.org/Graphics/SVG/1.1/DTD/svg11.dtd">
<svg version="1.1" id="Layer_1" xmlns="http://www.w3.org/2000/svg" xmlns:xlink="http://www.w3.org/1999/xlink" x="0px" y="0px"
	 width="36.556px" height="36.553px" viewBox="0 0 36.556 36.553" enable-background="new 0 0 36.556 36.553" xml:space="preserve">
<path fill="#FFFFFF" d="M18.277,36.553C8.199,36.553,0,28.354,0,18.275C0,8.196,8.199,0,18.277,0
	c10.079,0,18.278,8.196,18.278,18.275C36.556,28.354,28.356,36.553,18.277,36.553 M18.277,1.766c-9.103,0-16.51,7.406-16.51,16.51
	c0,9.102,7.407,16.512,16.51,16.512c9.104,0,16.512-7.41,16.512-16.512C34.789,9.172,27.381,1.766,18.277,1.766"/>
<path fill="none" stroke="#FFFFFF" stroke-width="1.5" stroke-miterlimit="10" d="M27.491,25.825H9.065
	c-1.073,0-1.951-0.879-1.951-1.951V12.68c0-1.073,0.878-1.951,1.951-1.951h18.426c1.072,0,1.951,0.878,1.951,1.951v11.194
	C29.442,24.946,28.563,25.825,27.491,25.825z"/>
<path fill="none" stroke="#FFFFFF" stroke-width="1.5" stroke-miterlimit="10" d="M7.748,11.251l9.081,8.646
	c0.797,0.76,2.101,0.76,2.896,0l9.082-8.646"/>
<line fill="none" stroke="#FFFFFF" stroke-width="1.5" stroke-miterlimit="10" x1="15.144" y1="17.853" x2="7.748" y2="25.301"/>
<line fill="none" stroke="#FFFFFF" stroke-width="1.5" stroke-miterlimit="10" x1="21.748" y1="17.853" x2="29.144" y2="25.301"/>
</svg>
