<?xml version="1.0" encoding="utf-8"?>
<!-- Generator: Adobe Illustrator 16.0.0, SVG Export Plug-In . SVG Version: 6.00 Build 0)  -->
<!DOCTYPE svg PUBLIC "-//W3C//DTD SVG 1.1//EN" "http://www.w3.org/Graphics/SVG/1.1/DTD/svg11.dtd">
<svg version="1.1" id="Layer_1" xmlns="http://www.w3.org/2000/svg" xmlns:xlink="http://www.w3.org/1999/xlink" x="0px" y="0px"
	 width="40px" height="40px" viewBox="0 0 40 40" enable-background="new 0 0 40 40" xml:space="preserve">
<path fill="#FFFFFF" d="M24.285,20.002h-2.752v9.959h-4.12v-9.959h-2.058v-3.435h2.058v-2.06c0-2.799,1.162-4.469,4.463-4.469h2.751
	v3.438h-1.72c-1.284,0-1.369,0.478-1.369,1.375l-0.005,1.716h3.113L24.285,20.002z"/>
<path fill="#FFFFFF" d="M19.999,38.276c-10.076,0-18.276-8.199-18.276-18.277c0-10.079,8.2-18.275,18.276-18.275
	c10.08,0,18.279,8.196,18.279,18.275C38.278,30.077,30.079,38.276,19.999,38.276 M19.999,3.489c-9.102,0-16.509,7.406-16.509,16.51
	c0,9.102,7.407,16.511,16.509,16.511c9.104,0,16.51-7.409,16.51-16.511C36.508,10.896,29.103,3.489,19.999,3.489"/>
</svg>
