<?xml version="1.0" encoding="utf-8"?>
<!-- Generator: Adobe Illustrator 16.0.0, SVG Export Plug-In . SVG Version: 6.00 Build 0)  -->
<!DOCTYPE svg PUBLIC "-//W3C//DTD SVG 1.1//EN" "http://www.w3.org/Graphics/SVG/1.1/DTD/svg11.dtd">
<svg version="1.1" id="Layer_1" xmlns="http://www.w3.org/2000/svg" xmlns:xlink="http://www.w3.org/1999/xlink" x="0px" y="0px"
	 width="40px" height="40px" viewBox="0 0 40 40" enable-background="new 0 0 40 40" xml:space="preserve">
<path fill="#FFFFFF" d="M20,38.276c-10.078,0-18.277-8.199-18.277-18.277C1.722,9.92,9.921,1.724,20,1.724
	c10.079,0,18.278,8.196,18.278,18.275C38.278,30.077,30.079,38.276,20,38.276 M20,3.489c-9.103,0-16.511,7.406-16.511,16.51
	c0,9.102,7.408,16.511,16.511,16.511c9.104,0,16.511-7.409,16.511-16.511C36.51,10.896,29.103,3.489,20,3.489"/>
<path fill="#FFFFFF" d="M24.375,30.887h-8.748c-3.427,0-6.218-2.791-6.218-6.221v-9.332c0-3.43,2.791-6.221,6.218-6.221h8.748
	c3.428,0,6.217,2.791,6.217,6.221v9.332C30.591,28.096,27.802,30.887,24.375,30.887 M15.627,10.708c-2.55,0-4.623,2.075-4.623,4.626
	v9.332c0,2.551,2.073,4.625,4.623,4.625h8.748c2.551,0,4.623-2.074,4.623-4.625v-9.332c0-2.551-2.072-4.626-4.623-4.626H15.627z"/>
<path fill="#FFFFFF" d="M20,25.784c-3.19,0-5.785-2.594-5.785-5.784c0-1.521,0.581-2.964,1.638-4.062
	c1.071-1.112,2.497-1.723,4.011-1.723c0.055,0,0.108,0,0.164,0.002c1.8,0.053,3.296,0.66,4.322,1.754
	c0.975,1.038,1.47,2.439,1.434,4.049c-0.035,1.542-0.643,2.988-1.713,4.066C22.987,25.182,21.54,25.784,20,25.784 M19.864,16.163
	c-0.981,0-1.906,0.4-2.609,1.128c-0.703,0.733-1.092,1.693-1.092,2.709c0,2.116,1.722,3.834,3.837,3.834
	c2.104,0,3.788-1.692,3.835-3.854c0.023-1.091-0.291-2.017-0.907-2.676c-0.666-0.708-1.687-1.102-2.958-1.138
	C19.934,16.163,19.899,16.163,19.864,16.163"/>
<path fill="#FFFFFF" d="M21.348,19.999c0,0.744-0.603,1.35-1.35,1.35c-0.745,0-1.348-0.605-1.348-1.35
	c0-0.746,0.603-1.348,1.348-1.348C20.746,18.651,21.348,19.253,21.348,19.999"/>
</svg>
