<?xml version="1.0" encoding="utf-8"?>
<!-- Generator: Adobe Illustrator 16.0.0, SVG Export Plug-In . SVG Version: 6.00 Build 0)  -->
<!DOCTYPE svg PUBLIC "-//W3C//DTD SVG 1.1//EN" "http://www.w3.org/Graphics/SVG/1.1/DTD/svg11.dtd">
<svg version="1.1" id="Layer_1" xmlns="http://www.w3.org/2000/svg" xmlns:xlink="http://www.w3.org/1999/xlink" x="0px" y="0px"
	 width="40px" height="40px" viewBox="0 0 40 40" enable-background="new 0 0 40 40" xml:space="preserve">
<path fill="#FFFFFF" d="M18.695,22.471c0.152,0.798,0.827,1.534,1.648,1.627c1.731,0.147,3.457,0,5.162,0.132
	c1.491,0.223,2.229,2.267,1.223,3.377c-0.541,0.963-1.744,0.93-2.691,0.93c-1.739-0.027-3.539,0.21-5.237-0.313
	c-2.568-0.78-4.501-3.32-4.484-6.005c-0.093-2.747-0.03-5.508-0.03-8.255c-0.18-1.137,0.566-2.432,1.754-2.611
	c1.081-0.313,2.373,0.468,2.533,1.593c0.085,0.885,0.085,1.787,0.093,2.671c2.237,0.014,4.487-0.075,6.726,0.031
	c0.836,0.134,1.618,0.806,1.724,1.681c0.331,1.098-0.525,2.386-1.636,2.565c-2.281,0.182-4.576,0.045-6.876,0.073
	C18.634,20.81,18.59,21.649,18.695,22.471"/>
<path fill="#FFFFFF" d="M19.999,38.202c-10.078,0-18.274-8.199-18.274-18.277c0-10.079,8.196-18.275,18.274-18.275
	s18.277,8.196,18.277,18.275C38.276,30.003,30.077,38.202,19.999,38.202 M19.999,3.415c-9.102,0-16.507,7.406-16.507,16.51
	c0,9.102,7.405,16.511,16.507,16.511c9.104,0,16.51-7.409,16.51-16.511C36.509,10.821,29.104,3.415,19.999,3.415"/>
</svg>
