<?xml version="1.0" encoding="utf-8"?>
<!-- Generator: Adobe Illustrator 16.0.0, SVG Export Plug-In . SVG Version: 6.00 Build 0)  -->
<!DOCTYPE svg PUBLIC "-//W3C//DTD SVG 1.1//EN" "http://www.w3.org/Graphics/SVG/1.1/DTD/svg11.dtd">
<svg version="1.1" id="Layer_1" xmlns="http://www.w3.org/2000/svg" xmlns:xlink="http://www.w3.org/1999/xlink" x="0px" y="0px"
	 width="40px" height="40px" viewBox="0 0 40 40" enable-background="new 0 0 40 40" xml:space="preserve">
<path fill="#FFFFFF" d="M28.762,15.215c-0.202,1.067-1.549,4.812-3.988,8.114c-1.064,1.397-2.31,2.772-3.908,3.715
	c-0.594,0.352-1.762,0.792-2.537,0.463c-1.521-0.646-2.058-3.271-2.494-5.03c-0.262-1.041-0.51-2.021-0.824-2.929
	c-0.237-0.677-0.354-1.365-0.723-1.994c-0.609-1.03-1.484-0.04-2.406-0.174c-0.382-0.059-0.453-0.473-0.719-0.725v-0.1
	c1.332-1.062,2.505-2.351,4.045-3.253c0.48-0.286,1.307-0.591,1.972-0.392c0.619,0.18,1.127,1.014,1.349,1.703
	c0.258,0.81,0.395,1.782,0.526,2.565c0.233,1.398,0.159,3.493,1.18,4.587c1.137,1.219,2.004-0.473,2.469-1.334
	c0.399-0.74,0.759-1.518,0.821-2.231c0.147-1.701-0.659-1.929-2.202-1.81c0.87-2.702,3.429-3.829,4.187-3.951
	c0.931-0.139,2.287-0.107,2.925,0.698C28.891,13.714,28.894,14.475,28.762,15.215"/>
<path fill="#FFFFFF" d="M20.001,38.276c-10.077,0-18.277-8.199-18.277-18.277c0-10.079,8.2-18.275,18.277-18.275
	S38.276,9.92,38.276,19.999C38.276,30.077,30.078,38.276,20.001,38.276 M20.001,3.489c-9.104,0-16.51,7.406-16.51,16.51
	c0,9.102,7.406,16.511,16.51,16.511s16.51-7.409,16.51-16.511C36.511,10.896,29.104,3.489,20.001,3.489"/>
</svg>
